<svg width="24" height="24" viewBox="0 0 24 24" fill="none" xmlns="http://www.w3.org/2000/svg">
<path d="M15.0808 12L7.54802 4.46725C7.34935 4.26858 7.2526 4.03208 7.25776 3.75775C7.26293 3.48342 7.36485 3.24683 7.56352 3.048C7.76218 2.84933 7.99868 2.75 8.27302 2.75C8.54735 2.75 8.78393 2.84933 8.98276 3.048L16.6385 10.7193C16.8192 10.9001 16.9531 11.1027 17.0403 11.327C17.1276 11.5513 17.1713 11.7757 17.1713 12C17.1713 12.2243 17.1276 12.4487 17.0403 12.673C16.9531 12.8973 16.8192 13.0999 16.6385 13.2808L8.96727 20.952C8.7686 21.1507 8.53468 21.2474 8.26551 21.2423C7.99618 21.2371 7.76218 21.1352 7.56352 20.9365C7.36485 20.7378 7.26551 20.5013 7.26551 20.227C7.26551 19.9527 7.36485 19.7161 7.56352 19.5173L15.0808 12Z" fill="#A0A0A0"/>
</svg>
