<svg width="24" height="24" viewBox="0 0 24 24" fill="none" xmlns="http://www.w3.org/2000/svg">
<path d="M21.5394 16.8095C21.3104 17.6717 20.6357 18.3508 19.779 18.5812C18.2263 19 11.9999 19 11.9999 19C11.9999 19 5.77352 19 4.22073 18.5812C3.36407 18.3508 2.68937 17.6717 2.46037 16.8095C2.04431 15.2466 2.04431 11.9859 2.04431 11.9859C2.04431 11.9859 2.04431 8.72509 2.46037 7.16224C2.68937 6.3 3.36407 5.64921 4.22073 5.41876C5.77352 5 11.9999 5 11.9999 5C11.9999 5 18.2262 5 19.779 5.41876C20.6357 5.64921 21.3104 6.3 21.5394 7.16224C21.9554 8.72509 21.9554 11.9859 21.9554 11.9859C21.9554 11.9859 21.9554 15.2466 21.5394 16.8095ZM9.9635 9.02533V14.9464L15.1675 11.9858L9.9635 9.02533Z" fill="#F5F5F5"/>
</svg>
