<svg width="24" height="24" viewBox="0 0 24 24" fill="none" xmlns="http://www.w3.org/2000/svg">
<path d="M12.0019 7.89864C9.73175 7.89864 7.90062 9.72976 7.90062 11.9999C7.90062 14.2701 9.73175 16.1012 12.0019 16.1012C14.2721 16.1012 16.1032 14.2701 16.1032 11.9999C16.1032 9.72976 14.2721 7.89864 12.0019 7.89864ZM12.0019 14.6663C10.5349 14.6663 9.33554 13.4705 9.33554 11.9999C9.33554 10.5293 10.5313 9.33355 12.0019 9.33355C13.4725 9.33355 14.6683 10.5293 14.6683 11.9999C14.6683 13.4705 13.4689 14.6663 12.0019 14.6663ZM17.2276 7.73088C17.2276 8.26272 16.7992 8.68749 16.271 8.68749C15.7391 8.68749 15.3143 8.25915 15.3143 7.73088C15.3143 7.2026 15.7427 6.77427 16.271 6.77427C16.7992 6.77427 17.2276 7.2026 17.2276 7.73088ZM19.9439 8.70176C19.8832 7.42034 19.5905 6.28526 18.6518 5.35006C17.7166 4.41487 16.5815 4.12218 15.3001 4.05793C13.9794 3.98297 10.0209 3.98297 8.70018 4.05793C7.42232 4.11861 6.28724 4.4113 5.34848 5.34649C4.40972 6.28169 4.12059 7.41677 4.05634 8.69819C3.98138 10.0189 3.98138 13.9774 4.05634 15.2981C4.11702 16.5795 4.40972 17.7146 5.34848 18.6498C6.28724 19.585 7.41875 19.8777 8.70018 19.9419C10.0209 20.0169 13.9794 20.0169 15.3001 19.9419C16.5815 19.8812 17.7166 19.5885 18.6518 18.6498C19.587 17.7146 19.8797 16.5795 19.9439 15.2981C20.0189 13.9774 20.0189 10.0225 19.9439 8.70176ZM18.2377 16.7151C17.9593 17.4148 17.4203 17.9537 16.7171 18.2357C15.6642 18.6534 13.1655 18.557 12.0019 18.557C10.8383 18.557 8.3361 18.6498 7.28668 18.2357C6.58707 17.9573 6.04809 17.4183 5.7661 16.7151C5.34848 15.6622 5.44485 13.1636 5.44485 11.9999C5.44485 10.8363 5.35205 8.33411 5.7661 7.2847C6.04452 6.58509 6.5835 6.0461 7.28668 5.76412C8.33966 5.34649 10.8383 5.44287 12.0019 5.44287C13.1655 5.44287 15.6677 5.35006 16.7171 5.76412C17.4167 6.04253 17.9557 6.58152 18.2377 7.2847C18.6553 8.33768 18.559 10.8363 18.559 11.9999C18.559 13.1636 18.6553 15.6657 18.2377 16.7151Z" fill="#F5F5F5"/>
</svg>
