<svg width="24" height="24" viewBox="0 0 24 24" fill="none" xmlns="http://www.w3.org/2000/svg">
<path d="M18.8573 4H5.13941C4.51084 4 4.00012 4.51786 4.00012 5.15357V18.8464C4.00012 19.4821 4.51084 20 5.13941 20H18.8573C19.4858 20 20.0001 19.4821 20.0001 18.8464V5.15357C20.0001 4.51786 19.4858 4 18.8573 4ZM8.83584 17.7143H6.46441V10.0786H8.83941V17.7143H8.83584ZM7.65012 9.03571C6.88941 9.03571 6.27512 8.41786 6.27512 7.66071C6.27512 6.90357 6.88941 6.28571 7.65012 6.28571C8.40727 6.28571 9.02512 6.90357 9.02512 7.66071C9.02512 8.42143 8.41084 9.03571 7.65012 9.03571ZM17.7251 17.7143H15.3537V14C15.3537 13.1143 15.3358 11.975 14.1216 11.975C12.8858 11.975 12.6966 12.9393 12.6966 13.9357V17.7143H10.3251V10.0786H12.6001V11.1214H12.6323C12.9501 10.5214 13.7251 9.88929 14.8787 9.88929C17.2787 9.88929 17.7251 11.4714 17.7251 13.5286V17.7143Z" fill="#F5F5F5"/>
</svg>
