<svg width="24" height="24" viewBox="0 0 24 24" fill="none" xmlns="http://www.w3.org/2000/svg">
<path d="M8.11354 6.00049C8.68446 6.00049 9.2056 6.05133 9.67696 6.15196C10.1483 6.25258 10.5508 6.41782 10.8866 6.64768C11.2224 6.87753 11.4829 7.18259 11.6683 7.56391C11.8537 7.94523 11.9458 8.41553 11.9458 8.97586C11.9458 9.58068 11.8081 10.0849 11.5338 10.4884C11.2594 10.892 10.8527 11.2225 10.3157 11.4799C11.055 11.6928 11.6069 12.0656 11.9712 12.5974C12.3356 13.1291 12.5178 13.771 12.5178 14.522C12.5178 15.1268 12.4002 15.6511 12.1651 16.0939C11.9299 16.5366 11.6132 16.8978 11.215 17.1775C10.8167 17.4582 10.3633 17.6647 9.85385 17.7992C9.34118 17.9337 8.81263 18.0015 8.28301 18.0005H2.4668V6.00049H8.11354ZM7.77776 10.857C8.24806 10.857 8.63468 10.7448 8.93762 10.5213C9.24056 10.2967 9.39203 9.9334 9.39097 9.42921C9.39097 9.14957 9.34012 8.91972 9.2395 8.74071C9.13887 8.5617 9.00435 8.42082 8.83593 8.3202C8.66751 8.21957 8.47474 8.14966 8.25653 8.11047C8.03198 8.07128 7.80424 8.05115 7.57545 8.05221H5.10639V10.8592L7.77776 10.857ZM7.92923 15.9488C8.17815 15.9498 8.42601 15.9244 8.66857 15.8735C8.90372 15.8227 9.11133 15.739 9.29034 15.6215C9.46935 15.5039 9.61235 15.3439 9.71933 15.1427C9.82525 14.9414 9.87927 14.683 9.87927 14.3694C9.87927 13.754 9.70556 13.3134 9.35813 13.0507C9.0107 12.787 8.551 12.6556 7.98008 12.6556H5.10639V15.9498L7.92923 15.9488ZM15.8374 15.6967C16.1954 16.0441 16.7113 16.2178 17.3839 16.2178C17.8658 16.2178 18.28 16.097 18.6274 15.8566C18.9749 15.6162 19.1878 15.3609 19.2661 15.0918H21.3666C21.0308 16.1341 20.515 16.8788 19.8201 17.3268C19.1253 17.7749 18.2853 17.9994 17.2992 17.9994C16.616 17.9994 15.9995 17.8903 15.4508 17.6721C14.9021 17.4539 14.4371 17.1425 14.0558 16.7389C13.6745 16.3354 13.38 15.8545 13.1735 15.2942C12.9669 14.7338 12.8631 14.1173 12.8631 13.4458C12.8631 12.7965 12.969 12.1917 13.1819 11.6313C13.3948 11.071 13.6978 10.5869 14.0897 10.1781C14.4816 9.76922 14.9498 9.44721 15.4932 9.21207C16.0366 8.97692 16.6393 8.85934 17.3002 8.85934C18.0396 8.85934 18.6836 9.00234 19.2333 9.28833C19.782 9.57432 20.2332 9.95776 20.5859 10.4397C20.9387 10.9217 21.1939 11.4703 21.3507 12.0868C21.5075 12.7033 21.5636 13.3473 21.5191 14.0199H15.2506C15.2835 14.79 15.4794 15.3503 15.8374 15.6967ZM18.5353 11.1261C18.2493 10.8126 17.815 10.6558 17.2324 10.6558C16.8511 10.6558 16.5344 10.7204 16.2834 10.8486C16.0313 10.9778 15.83 11.1367 15.6785 11.3273C15.5271 11.518 15.4211 11.7193 15.3597 11.9322C15.2983 12.1451 15.2612 12.3357 15.2506 12.5031H19.1327C19.0193 11.8993 18.8202 11.4396 18.5353 11.1261ZM14.8418 6.60954H19.692V7.95476H14.8418V6.60954Z" fill="white"/>
</svg>
