<svg width="24" height="24" viewBox="0 0 24 24" fill="none" xmlns="http://www.w3.org/2000/svg">
<path d="M10.5999 13.8L8.44988 11.65C8.26654 11.4667 8.03321 11.375 7.74988 11.375C7.46654 11.375 7.23321 11.4667 7.04988 11.65C6.86654 11.8333 6.77488 12.0667 6.77488 12.35C6.77488 12.6333 6.86654 12.8667 7.04988 13.05L9.89988 15.9C10.0999 16.1 10.3332 16.2 10.5999 16.2C10.8665 16.2 11.0999 16.1 11.2999 15.9L16.9499 10.25C17.1332 10.0667 17.2249 9.83333 17.2249 9.55C17.2249 9.26667 17.1332 9.03333 16.9499 8.85C16.7665 8.66667 16.5332 8.575 16.2499 8.575C15.9665 8.575 15.7332 8.66667 15.5499 8.85L10.5999 13.8ZM11.9999 22C10.6165 22 9.31654 21.7375 8.09988 21.2125C6.88321 20.6875 5.82488 19.975 4.92488 19.075C4.02488 18.175 3.31238 17.1167 2.78738 15.9C2.26238 14.6833 1.99988 13.3833 1.99988 12C1.99988 10.6167 2.26238 9.31667 2.78738 8.1C3.31238 6.88333 4.02488 5.825 4.92488 4.925C5.82488 4.025 6.88321 3.3125 8.09988 2.7875C9.31654 2.2625 10.6165 2 11.9999 2C13.3832 2 14.6832 2.2625 15.8999 2.7875C17.1165 3.3125 18.1749 4.025 19.0749 4.925C19.9749 5.825 20.6874 6.88333 21.2124 8.1C21.7374 9.31667 21.9999 10.6167 21.9999 12C21.9999 13.3833 21.7374 14.6833 21.2124 15.9C20.6874 17.1167 19.9749 18.175 19.0749 19.075C18.1749 19.975 17.1165 20.6875 15.8999 21.2125C14.6832 21.7375 13.3832 22 11.9999 22Z" fill="#BEEA3A"/>
</svg>
