<svg width="24" height="24" viewBox="0 0 24 24" fill="none" xmlns="http://www.w3.org/2000/svg">
<path d="M12 20.0384C11.0218 20.0384 10.1876 19.6931 9.49725 19.0026C8.80675 18.3123 8.4615 17.4781 8.4615 16.4999H5C4.5875 16.4999 4.23442 16.353 3.94075 16.0591C3.64692 15.7655 3.5 15.4124 3.5 14.9999C3.5 12.7884 4.24425 10.8705 5.73275 9.24614C7.22125 7.6218 9.06033 6.71664 11.25 6.53064V4.44214C11.25 4.22964 11.3219 4.05156 11.4658 3.90789C11.6096 3.76406 11.7878 3.69214 12.0003 3.69214C12.2129 3.69214 12.391 3.76406 12.5345 3.90789C12.6782 4.05156 12.75 4.22964 12.75 4.44214V6.53064C14.9397 6.71664 16.7788 7.6218 18.2673 9.24614C19.7558 10.8705 20.5 12.7884 20.5 14.9999C20.5 15.4124 20.3531 15.7655 20.0592 16.0591C19.7656 16.353 19.4125 16.4999 19 16.4999H15.5385C15.5385 17.4781 15.1932 18.3123 14.5027 19.0026C13.8124 19.6931 12.9782 20.0384 12 20.0384ZM5 14.9999H19C19 13.0666 18.3167 11.4166 16.95 10.0499C15.5833 8.68322 13.9333 7.99989 12 7.99989C10.0667 7.99989 8.41667 8.68322 7.05 10.0499C5.68333 11.4166 5 13.0666 5 14.9999ZM12.0025 18.5384C12.5637 18.5384 13.0433 18.3388 13.4413 17.9396C13.8394 17.5403 14.0385 17.0604 14.0385 16.4999H9.9615C9.9615 17.0627 10.1613 17.5431 10.561 17.9411C10.9607 18.3393 11.4412 18.5384 12.0025 18.5384Z" fill="#BEEA3A"/>
</svg>
