<svg width="24" height="24" viewBox="0 0 24 24" fill="none" xmlns="http://www.w3.org/2000/svg">
<path d="M3.43449 12L10.9672 19.5328C11.1659 19.7314 11.2627 19.9653 11.2577 20.2345C11.2526 20.5038 11.1507 20.7378 10.952 20.9365C10.7532 21.1352 10.5192 21.2345 10.25 21.2345C9.98082 21.2345 9.74682 21.1352 9.54799 20.9365L1.87699 13.2808C1.69616 13.0999 1.56215 12.8973 1.47499 12.673C1.38782 12.4487 1.34424 12.2243 1.34424 12C1.34424 11.7757 1.38782 11.5513 1.47499 11.327C1.56215 11.1027 1.69616 10.9001 1.87699 10.7193L9.54799 3.04801C9.74682 2.84935 9.98341 2.7526 10.2577 2.75776C10.5321 2.76293 10.7686 2.86485 10.9672 3.06351C11.1659 3.26218 11.2652 3.49618 11.2652 3.76551C11.2652 4.03468 11.1659 4.2686 10.9672 4.46727L3.43449 12Z" fill="#F5F5F5"/>
</svg>
