<svg width="24" height="24" viewBox="0 0 24 24" fill="none" xmlns="http://www.w3.org/2000/svg">
<g clip-path="url(#clip0_958_4057)">
<mask id="mask0_958_4057" style="mask-type:luminance" maskUnits="userSpaceOnUse" x="4" y="4" width="16" height="16">
<path d="M20 4H4V20H20V4Z" fill="white"/>
</mask>
<g mask="url(#mask0_958_4057)">
<path fill-rule="evenodd" clip-rule="evenodd" d="M20.0001 12.1819C20.0001 11.6147 19.9484 11.069 19.8514 10.5454H12.1633V13.6396H16.557C16.3675 14.6396 15.7924 15.4876 14.928 16.0547V18.0619H17.5657C19.1094 16.669 20.0001 14.6183 20.0001 12.1819Z" fill="#3E82F1"/>
<path fill-rule="evenodd" clip-rule="evenodd" d="M12.1632 20C14.3673 20 16.2149 19.2836 17.5655 18.0622L14.9278 16.0542C14.1968 16.5342 13.2616 16.8178 12.1632 16.8178C10.0371 16.8178 8.23755 15.4107 7.59537 13.52H4.86792V15.5929C6.21124 18.2071 8.97225 20 12.1632 20Z" fill="#32A753"/>
<path fill-rule="evenodd" clip-rule="evenodd" d="M7.59548 13.5199C7.43222 13.0399 7.3397 12.527 7.3397 11.9999C7.3397 11.4728 7.43222 10.9599 7.59548 10.4799V8.40698H4.86803C4.31565 9.48698 4 10.7092 4 11.9999C4 13.2905 4.31565 14.5128 4.86803 15.5928L7.59548 13.5199Z" fill="#F9BB00"/>
<path fill-rule="evenodd" clip-rule="evenodd" d="M12.1632 7.18174C13.3614 7.18174 14.438 7.58529 15.2834 8.37818L17.6254 6.08396C16.2113 4.7924 14.3637 3.99951 12.1632 3.99951C8.97225 3.99951 6.21124 5.7924 4.86792 8.40751L7.59537 10.4795C8.23755 8.58885 10.0371 7.18174 12.1632 7.18174Z" fill="#E74235"/>
</g>
</g>
<defs>
<clipPath id="clip0_958_4057">
<rect width="16" height="16" fill="white" transform="translate(4 4)"/>
</clipPath>
</defs>
</svg>
