<svg width="24" height="24" viewBox="0 0 24 24" fill="none" xmlns="http://www.w3.org/2000/svg">
<path d="M5.45141 20C4.97596 20 4.57353 19.8353 4.24412 19.5059C3.91471 19.1765 3.75 18.774 3.75 18.2986V5.70141C3.75 5.22596 3.91471 4.82353 4.24412 4.49412C4.57353 4.16471 4.97596 4 5.45141 4H18.0486C18.524 4 18.9265 4.16471 19.2559 4.49412C19.5853 4.82353 19.75 5.22596 19.75 5.70141V18.2986C19.75 18.774 19.5853 19.1765 19.2559 19.5059C18.9265 19.8353 18.524 20 18.0486 20H5.45141ZM7.98529 16.4706H12.6912C12.8912 16.4706 13.0588 16.4029 13.194 16.2675C13.3294 16.1322 13.3971 15.9645 13.3971 15.7645C13.3971 15.5643 13.3294 15.3967 13.194 15.2616C13.0588 15.1264 12.8912 15.0588 12.6912 15.0588H7.98529C7.78529 15.0588 7.61769 15.1265 7.48247 15.2619C7.3471 15.3973 7.27941 15.5649 7.27941 15.7649C7.27941 15.9651 7.3471 16.1327 7.48247 16.2678C7.61769 16.403 7.78529 16.4706 7.98529 16.4706ZM7.98529 12.7059H15.5147C15.7147 12.7059 15.8823 12.6382 16.0175 12.5028C16.1529 12.3675 16.2206 12.1998 16.2206 11.9998C16.2206 11.7996 16.1529 11.632 16.0175 11.4969C15.8823 11.3617 15.7147 11.2941 15.5147 11.2941H7.98529C7.78529 11.2941 7.61769 11.3618 7.48247 11.4972C7.3471 11.6325 7.27941 11.8002 7.27941 12.0002C7.27941 12.2004 7.3471 12.368 7.48247 12.5031C7.61769 12.6383 7.78529 12.7059 7.98529 12.7059ZM7.98529 8.94118H15.5147C15.7147 8.94118 15.8823 8.87349 16.0175 8.73812C16.1529 8.60275 16.2206 8.43506 16.2206 8.23506C16.2206 8.0349 16.1529 7.86729 16.0175 7.73224C15.8823 7.59702 15.7147 7.52941 15.5147 7.52941H7.98529C7.78529 7.52941 7.61769 7.5971 7.48247 7.73247C7.3471 7.86784 7.27941 8.03553 7.27941 8.23553C7.27941 8.43569 7.3471 8.60329 7.48247 8.73835C7.61769 8.87357 7.78529 8.94118 7.98529 8.94118Z" fill="#F5F5F5"/>
</svg>
