<svg width="144" height="64" viewBox="0 0 144 64" fill="none" xmlns="http://www.w3.org/2000/svg">
<path d="M136.148 21.9223V46.3366H130.508V21.9223H136.148ZM129.656 11.7706C129.656 10.7846 130.015 9.93238 130.734 9.21382C131.452 8.49527 132.313 8.13599 133.315 8.13599C134.335 8.13599 135.204 8.49527 135.922 9.21382C136.641 9.91567 137 10.7763 137 11.7956C137 12.815 136.641 13.6839 135.922 14.4025C135.22 15.121 134.36 15.4803 133.34 15.4803C132.321 15.4803 131.452 15.121 130.734 14.4025C130.015 13.6839 129.656 12.8066 129.656 11.7706Z" fill="white"/>
<path d="M111.607 4V29.818L119.553 21.9222H127.123L116.52 32.1742L127.9 46.3365H120.581L112.51 36.0344L111.607 36.9367V46.3365H105.967V4H111.607Z" fill="white"/>
<path d="M86.9912 21.9224H92.6311V24.1031C93.6671 23.0169 94.5862 22.2733 95.3883 21.8723C96.2071 21.4545 97.1764 21.2456 98.296 21.2456C99.7832 21.2456 101.337 21.7302 102.958 22.6994L100.376 27.863C99.307 27.0943 98.2626 26.71 97.2432 26.71C94.1684 26.71 92.6311 29.0328 92.6311 33.6783V46.3367H86.9912V21.9224Z" fill="white"/>
<path d="M75.2344 21.9224H80.8993V46.3367H75.2344V43.78C72.9116 45.9523 70.4134 47.0385 67.7397 47.0385C64.3641 47.0385 61.5734 45.8187 59.3676 43.3789C57.1785 40.889 56.084 37.7808 56.084 34.0543C56.084 30.3947 57.1785 27.345 59.3676 24.9052C61.5567 22.4655 64.2973 21.2456 67.5893 21.2456C70.4301 21.2456 72.9785 22.4154 75.2344 24.7548V21.9224ZM61.8492 34.0543C61.8492 36.3938 62.4758 38.2989 63.7291 39.7694C65.0158 41.2566 66.6368 42.0003 68.5919 42.0003C70.6808 42.0003 72.3685 41.2817 73.6553 39.8446C74.942 38.3573 75.5853 36.469 75.5853 34.1797C75.5853 31.8903 74.942 30.002 73.6553 28.5148C72.3685 27.0609 70.6975 26.334 68.6421 26.334C66.7036 26.334 65.0827 27.0693 63.7793 28.5398C62.4925 30.0271 61.8492 31.8652 61.8492 34.0543Z" fill="white"/>
<path d="M33.1225 59.6217H27.4827V21.9224H33.1225V24.5794C35.345 22.3569 37.8684 21.2456 40.6925 21.2456C44.0513 21.2456 46.8169 22.4822 48.9893 24.9554C51.1951 27.4118 52.298 30.5117 52.298 34.2549C52.298 37.9145 51.2035 40.9642 49.0144 43.404C46.842 45.827 44.1014 47.0385 40.7927 47.0385C37.9352 47.0385 35.3785 45.8939 33.1225 43.6045V59.6217ZM46.5328 34.2799C46.5328 31.9404 45.8978 30.0354 44.6278 28.5649C43.3411 27.0776 41.7202 26.334 39.765 26.334C37.6929 26.334 36.0135 27.0526 34.7267 28.4897C33.44 29.9268 32.7967 31.8151 32.7967 34.1546C32.7967 36.444 33.44 38.3323 34.7267 39.8195C35.9968 41.2734 37.6678 42.0003 39.7399 42.0003C41.6951 42.0003 43.3077 41.265 44.5777 39.7945C45.8811 38.3239 46.5328 36.4857 46.5328 34.2799Z" fill="white"/>
<path d="M21.8417 26.0833L17.1794 28.5649C16.4442 27.0609 15.5334 26.3089 14.4472 26.3089C13.9292 26.3089 13.4864 26.4844 13.1187 26.8353C12.7511 27.1695 12.5673 27.604 12.5673 28.1388C12.5673 29.0746 13.6535 30.002 15.8259 30.9211C18.8171 32.2078 20.8307 33.3943 21.8668 34.4805C22.9029 35.5667 23.4209 37.0288 23.4209 38.867C23.4209 41.2232 22.5519 43.1951 20.814 44.7826C19.1262 46.2866 17.0875 47.0385 14.6979 47.0385C10.6038 47.0385 7.70449 45.0416 6 41.0478L10.8127 38.8169C11.4811 39.9866 11.9908 40.7303 12.3417 41.0478C13.0268 41.6828 13.8457 42.0003 14.7982 42.0003C16.7032 42.0003 17.6557 41.1313 17.6557 39.3934C17.6557 38.3908 16.9204 37.455 15.4499 36.586C14.8817 36.3019 14.3136 36.0262 13.7454 35.7588C13.1772 35.4915 12.6007 35.2157 12.0158 34.9317C10.3782 34.1295 9.22516 33.3274 8.55673 32.5253C7.70449 31.506 7.27837 30.1942 7.27837 28.5899C7.27837 26.4677 8.00528 24.7131 9.45911 23.3261C10.9464 21.9391 12.7511 21.2456 14.8734 21.2456C17.9983 21.2456 20.3211 22.8582 21.8417 26.0833Z" fill="white"/>
</svg>
