<svg width="22" height="22" viewBox="0 0 22 22" fill="none" xmlns="http://www.w3.org/2000/svg">
<path d="M9.5204 0.142301C9.62829 -0.0967659 9.99415 -0.0156679 9.98544 0.244742L9.56991 13.0722C9.56121 13.3112 9.88052 13.4094 10.0146 13.2088L18.4661 0.611929C18.6148 0.391369 18.9661 0.537955 18.905 0.795523L15.524 15.0703C15.4701 15.298 15.7515 15.456 15.9264 15.2952L21.1895 10.4392C21.3834 10.2599 21.6881 10.4748 21.5758 10.711L17.8363 18.5558C17.7897 18.6525 17.8144 18.7649 17.8961 18.8347L20.6559 21.1844C20.825 21.3281 20.7215 21.6 20.4969 21.6H9.32148L9.57499 14.4998C9.58217 14.2988 9.32145 14.2141 9.20917 14.3811L4.35352 21.6H0.242293C0.0673438 21.6 -0.0493661 21.4249 0.0206135 21.2684L9.5204 0.142301Z" fill="#BEEA3A"/>
</svg>
