<svg width="88" height="24" viewBox="0 0 88 24" fill="none" xmlns="http://www.w3.org/2000/svg">
<path d="M11.5204 1.34225C11.6283 1.10319 11.9941 1.18428 11.9854 1.44469L11.5699 14.2721C11.5612 14.5112 11.8805 14.6094 12.0146 14.4087L20.4661 1.81188C20.6148 1.59132 20.9661 1.73791 20.905 1.99547L17.524 16.2703C17.4701 16.498 17.7515 16.656 17.9264 16.4952L23.1895 11.6391C23.3834 11.4599 23.6881 11.6748 23.5758 11.911L19.8363 19.7557C19.7897 19.8525 19.8144 19.9649 19.8961 20.0346L22.6559 22.3843C22.825 22.5281 22.7215 22.8 22.4969 22.8H11.3215L11.575 15.6998C11.5822 15.4987 11.3214 15.4141 11.2092 15.581L6.35352 22.8H2.24229C2.06734 22.8 1.95063 22.6249 2.02061 22.4683L11.5204 1.34225Z" fill="#BEEA3A"/>
<path d="M84.3615 7.83936V18.112H81.9885V7.83936H84.3615ZM81.6299 3.56787C81.6299 3.15303 81.7811 2.79443 82.0834 2.49209C82.3857 2.18975 82.7479 2.03857 83.1697 2.03857C83.5986 2.03857 83.9643 2.18975 84.2666 2.49209C84.5689 2.7874 84.7201 3.14951 84.7201 3.57842C84.7201 4.00732 84.5689 4.37295 84.2666 4.67529C83.9713 4.97764 83.6092 5.12881 83.1803 5.12881C82.7514 5.12881 82.3857 4.97764 82.0834 4.67529C81.7811 4.37295 81.6299 4.00381 81.6299 3.56787Z" fill="white"/>
<path d="M74.0359 0.29834V11.1616L77.3792 7.83936H80.5644L76.1031 12.153L80.8914 18.112H77.8117L74.4156 13.7772L74.0359 14.1569V18.112H71.6628V0.29834H74.0359Z" fill="white"/>
<path d="M63.6782 7.83945H66.0513V8.75703C66.4872 8.3 66.8739 7.98711 67.2114 7.81836C67.556 7.64258 67.9638 7.55469 68.4349 7.55469C69.0606 7.55469 69.7146 7.75859 70.3966 8.16641L69.3103 10.3391C68.8603 10.0156 68.4208 9.85391 67.9919 9.85391C66.6981 9.85391 66.0513 10.8312 66.0513 12.7859V18.1121H63.6782V7.83945Z" fill="white"/>
<path d="M58.7314 7.83945H61.115V18.1121H58.7314V17.0363C57.7541 17.9504 56.7029 18.4074 55.5779 18.4074C54.1576 18.4074 52.9833 17.8941 52.0552 16.8676C51.1341 15.8199 50.6736 14.5121 50.6736 12.9441C50.6736 11.4043 51.1341 10.1211 52.0552 9.09453C52.9763 8.06797 54.1294 7.55469 55.5146 7.55469C56.7099 7.55469 57.7822 8.04688 58.7314 9.03125V7.83945ZM53.0994 12.9441C53.0994 13.9285 53.363 14.7301 53.8904 15.3488C54.4318 15.9746 55.1138 16.2875 55.9365 16.2875C56.8154 16.2875 57.5255 15.9852 58.0669 15.3805C58.6083 14.7547 58.8791 13.9602 58.8791 12.9969C58.8791 12.0336 58.6083 11.2391 58.0669 10.6133C57.5255 10.0016 56.8224 9.6957 55.9576 9.6957C55.1419 9.6957 54.4599 10.0051 53.9115 10.6238C53.3701 11.2496 53.0994 12.023 53.0994 12.9441Z" fill="white"/>
<path d="M41.0122 23.702H38.6392V7.83945H41.0122V8.95742C41.9474 8.02227 43.0091 7.55469 44.1974 7.55469C45.6106 7.55469 46.7743 8.075 47.6884 9.11563C48.6165 10.1492 49.0806 11.4535 49.0806 13.0285C49.0806 14.5684 48.62 15.8516 47.6989 16.8781C46.7849 17.8977 45.6317 18.4074 44.2396 18.4074C43.0372 18.4074 41.9614 17.9258 41.0122 16.9625V23.702ZM46.6548 13.0391C46.6548 12.0547 46.3876 11.2531 45.8532 10.6344C45.3118 10.0086 44.6298 9.6957 43.8071 9.6957C42.9353 9.6957 42.2286 9.99805 41.6872 10.6027C41.1458 11.2074 40.8751 12.002 40.8751 12.9863C40.8751 13.9496 41.1458 14.7441 41.6872 15.3699C42.2216 15.9816 42.9247 16.2875 43.7966 16.2875C44.6192 16.2875 45.2978 15.9781 45.8321 15.3594C46.3806 14.7406 46.6548 13.9672 46.6548 13.0391Z" fill="white"/>
<path d="M36.2657 9.59023L34.304 10.6344C33.9946 10.0016 33.6114 9.68516 33.1544 9.68516C32.9364 9.68516 32.7501 9.75898 32.5954 9.90664C32.4407 10.0473 32.3634 10.2301 32.3634 10.4551C32.3634 10.8488 32.8204 11.2391 33.7345 11.6258C34.9931 12.1672 35.8403 12.6664 36.2763 13.1234C36.7122 13.5805 36.9302 14.1957 36.9302 14.9691C36.9302 15.9605 36.5646 16.7902 35.8333 17.4582C35.1231 18.091 34.2653 18.4074 33.2599 18.4074C31.5372 18.4074 30.3173 17.5672 29.6001 15.8867L31.6251 14.948C31.9063 15.4402 32.1208 15.7531 32.2685 15.8867C32.5567 16.1539 32.9013 16.2875 33.3021 16.2875C34.1036 16.2875 34.5044 15.9219 34.5044 15.1906C34.5044 14.7688 34.195 14.375 33.5763 14.0094C33.3372 13.8898 33.0981 13.7738 32.8591 13.6613C32.62 13.5488 32.3774 13.4328 32.1313 13.3133C31.4423 12.9758 30.9571 12.6383 30.6759 12.3008C30.3173 11.8719 30.138 11.3199 30.138 10.6449C30.138 9.75195 30.4438 9.01367 31.0556 8.43008C31.6813 7.84648 32.4407 7.55469 33.3337 7.55469C34.6485 7.55469 35.6259 8.2332 36.2657 9.59023Z" fill="white"/>
</svg>
